<svg xmlns="http://www.w3.org/2000/svg" viewBox="0 0 32 32">
  <defs>
    <linearGradient id="grad" x1="0%" y1="0%" x2="100%" y2="100%">
      <stop offset="0%" style="stop-color:#6366f1"/>
      <stop offset="100%" style="stop-color:#4f46e5"/>
    </linearGradient>
  </defs>
  <rect width="32" height="32" rx="6" fill="url(#grad)"/>
  <path fill="#fff" d="M16 4C9.373 4 4 9.373 4 16c0 5.303 3.438 9.8 8.207 11.387.6.11.793-.26.793-.577v-2.234c-3.338.726-4.033-1.416-4.033-1.416-.546-1.387-1.333-1.756-1.333-1.756-1.09-.744.082-.729.082-.729 1.205.084 1.839 1.237 1.839 1.237 1.07 1.834 2.807 1.304 3.492.997.107-.775.418-1.305.762-1.605-2.665-.305-5.466-1.333-5.466-5.93 0-1.31.468-2.38 1.236-3.22-.124-.303-.536-1.523.116-3.176 0 0 1.008-.322 3.301 1.23A11.51 11.51 0 0116 9.805c1.02.005 2.047.138 3.006.404 2.291-1.552 3.297-1.23 3.297-1.23.654 1.653.242 2.873.118 3.176.77.84 1.235 1.91 1.235 3.22 0 4.61-2.805 5.622-5.476 5.921.43.372.814 1.103.814 2.222v3.293c0 .32.192.694.8.576C24.566 25.797 28 21.3 28 16c0-6.627-5.373-12-12-12z"/>
</svg>
